# xmcd
#
# Track frame offsets:
# 150
# 23946
# 50010
# 72028
# 99699
# 118156
# 135455
# 154130
# 172777
# 191468
#
# Disc length: 2885 seconds
#
#
# Revision: 0
# Processed by: cddbd v1.5.2PL0 Copyright (c) Steve Scherf et al.
# Submitted via: FreeRIP 2.945 
#
DISCID=820b430a
DTITLE=Biz Markie - Diabolical: The Biz's Greatest Hits
DYEAR=1900
DGENRE=Rap
TTITLE0=Make the Music With Your Mouth, Biz
TTITLE1=Nobody Beats the Biz
TTITLE2=Biz Is Goin' Off
TTITLE3=Vapors
TTITLE4=Just A Friend
TTITLE5=I Hear Music
TTITLE6=Spring Again
TTITLE7=What Comes Around Goes Around
TTITLE8=I'm The Biz Markie
TTITLE9=Let Me Turn You On
EXTD=
EXTT0=
EXTT1=
EXTT2=
EXTT3=
EXTT4=
EXTT5=
EXTT6=
EXTT7=
EXTT8=
EXTT9=
PLAYORDER=
